<svg xmlns="http://www.w3.org/2000/svg" viewBox="0 0 263.06 241.01"><defs><style>.cls-1{fill:#dc232e;}</style></defs><title>alloy_icon_red</title><g id="Layer_2" data-name="Layer 2"><g id="Layer_1-2" data-name="Layer 1"><circle class="cls-1" cx="50" cy="190.79" r="50"/><path class="cls-1" d="M237.68,234.08a3.13,3.13,0,0,1-.36.22,50,50,0,0,1-73.46-55.59c.06-.24.12-.47.19-.69a65.48,65.48,0,0,0-45.78-79.29l-.7-.19a50,50,0,0,1-11.4-91.41c.12-.07.24-.14.37-.2s.24-.15.36-.22a50,50,0,0,1,73.46,55.58,6.66,6.66,0,0,1-.19.7A65.49,65.49,0,0,0,226,142.28l.7.18a50,50,0,0,1,11.4,91.42C237.93,234,237.81,234,237.68,234.08Z"/></g></g></svg>